<?xml version="1.0" standalone="no"?>
<!DOCTYPE svg PUBLIC "-//W3C//DTD SVG 20010904//EN"
 "http://www.w3.org/TR/2001/REC-SVG-20010904/DTD/svg10.dtd">
<svg version="1.0" xmlns="http://www.w3.org/2000/svg"
 width="700.000000pt" height="700.000000pt" viewBox="0 0 700.000000 700.000000"
 preserveAspectRatio="xMidYMid meet">
<metadata>
Created by potrace 1.14, written by Peter Selinger 2001-2017
</metadata>
<g transform="translate(0.000000,700.000000) scale(0.100000,-0.100000)"
fill="#000000" stroke="none">
<path d="M690 6985 c-193 -42 -378 -157 -501 -312 -63 -80 -136 -220 -166
-318 -17 -57 -18 -199 -21 -2815 -2 -1970 0 -2773 8 -2820 55 -318 285 -578
610 -687 l85 -28 2795 0 2795 0 85 28 c290 97 490 297 587 587 l28 85 0 2785
c0 2681 -1 2788 -19 2855 -46 175 -163 355 -302 465 -81 64 -220 137 -319 167
-57 17 -198 18 -2830 20 -2342 1 -2780 -1 -2835 -12z m4030 -1461 c0 -440 -3
-583 -12 -578 -6 4 -44 31 -84 60 -148 105 -369 195 -563 228 -122 21 -339 21
-462 0 -52 -8 -147 -33 -213 -55 l-118 -39 -819 0 -819 0 0 -120 0 -120 632 0
632 0 -56 -57 c-114 -118 -187 -222 -264 -374 -87 -174 -131 -347 -141 -556
l-6 -123 -399 0 -398 0 0 -125 0 -125 418 0 418 0 18 -67 c98 -373 384 -710
749 -883 190 -91 374 -131 597 -131 282 0 523 70 757 220 121 77 119 69 29
160 l-78 78 -62 -41 c-257 -169 -584 -232 -882 -171 -543 113 -934 591 -934
1143 0 325 116 609 340 832 462 460 1195 462 1655 5 226 -224 345 -511 345
-830 0 -264 -78 -498 -238 -711 l-65 -86 704 -704 704 -704 -75 -75 -75 -75
-617 617 -618 618 0 -758 0 -757 -1810 0 -1810 0 0 2445 0 2445 1810 0 1810 0
0 -586z"/>
<path d="M1630 2305 l0 -125 1280 0 1280 0 0 125 0 125 -1280 0 -1280 0 0
-125z"/>
</g>
</svg>
